<svg viewBox="0 0 680 500" xmlns="http://www.w3.org/2000/svg">
  <path d="M 340 130 Q 240 130 205 220 Q 180 300 205 375 Q 240 445 340 445 Q 440 445 475 375 Q 500 300 475 220 Q 440 130 340 130 Z" fill="#3D6B2E"/>
  <path d="M 340 158 Q 255 158 227 232 Q 205 300 227 370 Q 255 435 340 435 Q 425 435 453 370 Q 475 300 453 232 Q 425 158 340 158 Z" fill="#C8DA8F"/>
  <path d="M 340 190 Q 273 190 250 250 Q 232 300 250 355 Q 273 410 340 410 Q 407 410 430 355 Q 448 300 430 250 Q 407 190 340 190 Z" fill="#E8F0C4"/>
  <ellipse cx="340" cy="300" rx="60" ry="75" fill="#F5B94E"/>
  <path
d="
M320 314
L320 293
Q320 284 328 284
Q334 284 338 295

Q340 301 342 295
Q346 284 352 284
Q360 284 360 293

L360 314"
stroke="#FFF8EC"
stroke-width="10"
stroke-linecap="round"
stroke-linejoin="round"
fill="none"/>
</svg>